# xmcd
#
# Track frame offsets: 
#        150
#        24126
#        54233
#        74683
#        101098
#        123803
#        147141
#        175401
#        197852
#        219686
#        240094
#        259298
#
# Disc length: 3735 seconds
#
# Revision: 4
# Processed by: cddbd v1.5.2PL0 Copyright (c) Steve Scherf et al.
# Submitted via: ExactAudioCopyFreeDBPlugin 1.0
#
DISCID=a90e950c
DTITLE=Various Artist - Box of Dub: Dubstep and Future Dub
DYEAR=2007
DGENRE=Dubstep
TTITLE0=Digital Mystikz - I Wait
TTITLE1=Sub Version - The Light (feat. Paul St Hilaire)
TTITLE2=Skream - Sub Island
TTITLE3=Tayo Meets Acid Rockers Uptown - Dread Cowboy
TTITLE4=Scuba - Subaqueous
TTITLE5=Kode9 - Magnetic City
TTITLE6=Sub Version - Rise Up (feat. Paul St Hilaire)
TTITLE7=Burial - Unite
TTITLE8=Digital Mystikz - Guilty (feat. Sgt Pokes)
TTITLE9=King Midas Sound - Surround Me
TTITLE10=Skream - Irie
TTITLE11=Scuba - Respirator
EXTD=
EXTT0=
EXTT1=
EXTT2=
EXTT3=
EXTT4=
EXTT5=
EXTT6=
EXTT7=
EXTT8=
EXTT9=
EXTT10=
EXTT11=
PLAYORDER=
